<svg viewBox="0 0 151 24" xmlns="http://www.w3.org/2000/svg" xml:space="preserve" style="fill-rule:evenodd;clip-rule:evenodd;stroke-linecap:round;stroke-linejoin:round;stroke-miterlimit:1.5"><path d="m12.5 0 2.951 9.082H25l-7.725 5.613 2.95 9.081-7.725-5.612-7.725 5.612 2.95-9.081L0 9.082h9.549L12.5 0Z" style="fill:none;stroke:#000;stroke-width:.14px" transform="translate(.07 .07)"/><path d="m12.5 0 2.951 9.082H25l-7.725 5.613 2.95 9.081-7.725-5.612-7.725 5.612 2.95-9.081L0 9.082h9.549L12.5 0Z" style="fill:none;stroke:#000;stroke-width:.14px" transform="translate(31.32 .07)"/><path d="m12.5 0 2.951 9.082H25l-7.725 5.613 2.95 9.081-7.725-5.612-7.725 5.612 2.95-9.081L0 9.082h9.549L12.5 0Z" style="fill:none;stroke:#000;stroke-width:.14px" transform="translate(62.57 .07)"/><path d="m12.5 0 2.951 9.082H25l-7.725 5.613 2.95 9.081-7.725-5.612-7.725 5.612 2.95-9.081L0 9.082h9.549L12.5 0Z" style="fill:none;stroke:#000;stroke-width:.14px" transform="translate(93.82 .07)"/><path d="m12.5 0 2.951 9.082H25l-7.725 5.613 2.95 9.081-7.725-5.612-7.725 5.612 2.95-9.081L0 9.082h9.549L12.5 0Z" style="fill:none;stroke:#000;stroke-width:.14px" transform="translate(125.07 .07)"/></svg>