<?xml version="1.0" encoding="UTF-8" standalone="no"?>
<!DOCTYPE svg PUBLIC "-//W3C//DTD SVG 1.1//EN" "http://www.w3.org/Graphics/SVG/1.1/DTD/svg11.dtd">
<svg width="100%" height="100%" viewBox="0 0 151 24" version="1.1" xmlns="http://www.w3.org/2000/svg" xmlns:xlink="http://www.w3.org/1999/xlink" xml:space="preserve" xmlns:serif="http://www.serif.com/" style="fill-rule:evenodd;clip-rule:evenodd;stroke-linecap:round;stroke-linejoin:round;stroke-miterlimit:1.5;">
    <g transform="matrix(1,0,0,1,0.0692913,-0.542502)">
        <g transform="matrix(1,0,0,1,0,0.611794)">
            <path d="M12.5,0L15.451,9.082L25,9.082L17.275,14.695L20.225,23.776L12.5,18.164L4.775,23.776L7.725,14.695L0,9.082L9.549,9.082L12.5,0Z" style="fill:none;stroke:black;stroke-width:0.14px;"/>
        </g>
        <g transform="matrix(1,0,0,1,31.25,0.611794)">
            <path d="M12.5,0L15.451,9.082L25,9.082L17.275,14.695L20.225,23.776L12.5,18.164L4.775,23.776L7.725,14.695L0,9.082L9.549,9.082L12.5,0Z" style="fill:none;stroke:black;stroke-width:0.14px;"/>
        </g>
        <g transform="matrix(1,0,0,1,62.5,0.611794)">
            <path d="M12.5,0L15.451,9.082L25,9.082L17.275,14.695L20.225,23.776L12.5,18.164L4.775,23.776L7.725,14.695L0,9.082L9.549,9.082L12.5,0Z" style="fill:none;stroke:black;stroke-width:0.14px;"/>
        </g>
        <g transform="matrix(1,0,0,1,93.75,0.611794)">
            <path d="M12.5,0L15.451,9.082L25,9.082L17.275,14.695L20.225,23.776L12.5,18.164L4.775,23.776L7.725,14.695L0,9.082L9.549,9.082L12.5,0Z" style="fill:none;stroke:black;stroke-width:0.14px;"/>
        </g>
        <g transform="matrix(1,0,0,1,125,0.611794)">
            <path d="M12.5,0L15.451,9.082L25,9.082L17.275,14.695L20.225,23.776L12.5,18.164L4.775,23.776L7.725,14.695L0,9.082L9.549,9.082L12.5,0Z" style="fill:none;stroke:black;stroke-width:0.14px;"/>
        </g>
    </g>
</svg>
